<?xml version="1.0" encoding="utf-8"?>
<!-- Generator: Adobe Illustrator 22.1.0, SVG Export Plug-In . SVG Version: 6.00 Build 0)  -->
<svg version="1.1" baseProfile="tiny" id="Layer_1" xmlns="http://www.w3.org/2000/svg" xmlns:xlink="http://www.w3.org/1999/xlink"
	 x="0px" y="0px" viewBox="0 0 1280 720" xml:space="preserve">
<g>
	<path d="M65.6,136.7H34V34.1H4.8V6.8h90v27.3H65.6V136.7z"/>
	<path d="M132.4,38.5h-31.7V6.8h31.7V38.5z M101.3,48.4h30.7v88.3h-30.7V48.4z"/>
	<path d="M147.9,3.5h30.7v133.3h-30.7V3.5z"/>
	<path d="M246.7,55.1V3.5h30.7v108.3l1.7,25h-27.7l-2-10.2c-5,7.3-12.7,12.5-24.7,12.5c-24.2,0-32.5-17.3-32.5-43.1v-6.7
		c0-25.8,8.3-43.1,32.5-43.1C234.6,46.1,241.7,49.8,246.7,55.1z M246.7,79.3c-1.7-2.5-6.2-6.8-12.8-6.8c-8.3,0-11.2,6-11.2,16.8v6.7
		c0,10.8,2.8,16.8,11.2,16.8c6.7,0,11.2-4.3,12.8-6.8V79.3z"/>
	<path d="M344,128.4c-6.2,6.5-15,10.7-26.7,10.7c-20.8,0-27.5-13.2-27.5-27.3v-1.7c0-19.2,12.8-25.7,32.5-28.7l18.7-3
		c-0.3-6.3-2.8-9.3-9.5-9.3c-7.5,0-9.5,4.3-9.5,8.5h-28.8v-1.5c0-16,9.2-30,39.2-30c30.2,0,39.3,12.2,39.3,34v31.7l1.7,25h-27.7
		L344,128.4z M341,109.6V96.1l-12,1.8c-7.2,1.2-8.7,4.3-8.7,8.3v1c0,3.5,2.3,7.2,8.7,7.2C334.2,114.4,338.5,111.9,341,109.6z"/>
</g>
</svg>
